<?xml version="1.0" standalone="no"?>
<!DOCTYPE svg PUBLIC "-//W3C//DTD SVG 20010904//EN"
 "http://www.w3.org/TR/2001/REC-SVG-20010904/DTD/svg10.dtd">
<svg version="1.0" xmlns="http://www.w3.org/2000/svg"
 width="512.000000pt" height="512.000000pt" viewBox="0 0 512.000000 512.000000"
 preserveAspectRatio="xMidYMid meet">
<metadata>
Created by potrace 1.11, written by Peter Selinger 2001-2013
</metadata>
<g transform="translate(0.000000,512.000000) scale(0.100000,-0.100000)"
fill="#000000" stroke="none">
<path d="M640 2560 l0 -1920 1920 0 1920 0 0 1920 0 1920 -1920 0 -1920 0 0
-1920z m1280 1440 l0 -160 160 0 160 0 0 160 0 160 960 0 960 0 0 -1600 0
-1600 -160 0 -160 0 0 320 0 320 -160 0 -160 0 0 -160 0 -160 -160 0 -160 0 0
160 0 160 -320 0 -320 0 0 -160 0 -160 -160 0 -160 0 0 -160 0 -160 -280 0
-280 0 0 240 0 240 160 0 160 0 0 160 0 160 120 0 120 0 0 400 0 400 160 0
160 0 0 160 0 160 -160 0 -160 0 0 160 0 160 -360 0 -360 0 0 -160 0 -160
-120 0 -120 0 0 -240 0 -240 -160 0 -160 0 0 880 0 880 480 0 480 0 0 -160z"/>
<path d="M2240 3680 l0 -160 160 0 160 0 0 160 0 160 -160 0 -160 0 0 -160z"/>
<path d="M2880 3360 l0 -160 160 0 160 0 0 -160 0 -160 320 0 320 0 0 320 0
320 -480 0 -480 0 0 -160z"/>
<path d="M2880 2400 l0 -160 160 0 160 0 0 -160 0 -160 160 0 160 0 0 160 0
160 -160 0 -160 0 0 160 0 160 -160 0 -160 0 0 -160z"/>
</g>
</svg>
